<?xml version="1.0" standalone="no"?><!DOCTYPE svg PUBLIC "-//W3C//DTD SVG 1.1//EN" "http://www.w3.org/Graphics/SVG/1.1/DTD/svg11.dtd"><svg t="1726802012175" class="icon" viewBox="0 0 1024 1024" version="1.1" xmlns="http://www.w3.org/2000/svg" p-id="20088" xmlns:xlink="http://www.w3.org/1999/xlink" width="200" height="200"><path d="M512 512m-512 0a512 512 0 1 0 1024 0 512 512 0 1 0-1024 0Z" fill="#FFBF00" p-id="20089"></path><path d="M277.333333 483.541333h14.250667c33.664 0 76.928 23.552 76.928 67.584 0 43.989333-43.264 71.722667-76.928 71.722667H277.333333V768h140.117334v-16c0 2.56 2.218667-42.496 27.434666-64.384a66.432 66.432 0 0 1 46.506667-17.450667c18.944 0 30.421333 3.754667 44.928 12.970667 26.453333 16.768 29.098667 55.509333 29.098667 68.864V768h111.530666v-170.581333L734.037333 597.333333a57.002667 57.002667 0 0 0 55.296-56.874666c0-30.72-24.490667-55.893333-55.296-56.917334h-57.088V369.792H562.773333V312.874667c0-31.402667-25.6-56.874667-57.088-56.874667-31.573333 0-57.088 25.472-57.088 56.874667v56.917333H277.333333v113.749333z" fill="#727eba" p-id="20090" data-spm-anchor-id="a313x.search_index.0.i11.36983a81yJQZai" class="selected"></path></svg>